<?xml version="1.0" encoding="UTF-8"?>
<svg id="Layer_1" data-name="Layer 1" xmlns="http://www.w3.org/2000/svg" viewBox="0 0 292.4 292.1">
  <path id="Magic" d="m218.26,78.74c-.47,1.31-.97,3.04-1.7,4.66-4.35,9.7-7.53,19.86-11.52,29.7-.98,2.41-2.32,4.68-2.62,7.4-.22,1.97.32,2.89,2.12,3.54,9.3,3.38,18.57,6.88,27.87,10.27,10.39,3.79,20.81,7.5,31.21,11.27.91.33,2.36.32,2.23,1.77-.11,1.23-1.34,1.47-2.34,1.82-12.54,4.34-25.09,8.66-37.62,13.04-7.55,2.64-15.03,5.51-22.63,8-2.94.97-3.43,2.48-2.73,5.2,2.85,11.11,5.58,22.24,8.36,33.37.13.51.24,1.03.34,1.54.1.52.21,1.1-.26,1.47-.61.47-1.18.09-1.72-.26-4.94-3.22-9.88-6.43-14.82-9.66-4.49-2.94-8.97-5.91-13.48-8.81-2.1-1.35-3.39-1.52-4.6,1.53-7.11,17.89-13.71,35.98-20.41,54.02-2.42,6.5-5.27,12.84-7.08,19.56-.23.84-.62,1.7-1.57,1.77-1.37.11-1.66-1.11-2.02-2.07-3.89-10.45-7.73-20.92-11.65-31.36-5.36-14.28-10.8-28.54-16.18-42.82-.86-2.28-1.92-2.76-4.25-1.46-10.03,5.57-20.17,10.93-30.27,16.38-.54.29-1.04.91-1.7.51-.89-.55-.69-1.52-.45-2.28.91-2.91,1.86-5.81,2.9-8.67,2.91-8,5.8-16.02,8.88-23.96,1.05-2.71.44-3.93-2.29-4.91-19.13-6.89-38.21-13.9-57.3-20.91-1.62-.6-4.36-.72-4.42-2.34-.06-1.95,2.72-1.77,4.3-2.4,10.06-4,20.33-7.45,30.3-11.7,3.06-1.31,6.64-1.68,9.88-2.92,4.91-1.88,9.88-3.61,14.85-5.33,2.05-.71,2.09-2.07,1.56-3.77-1.35-4.32-2.69-8.63-4.05-12.95-3.06-9.73-6.13-19.46-9.2-29.19-.28-.89-.9-1.89.07-2.6.9-.65,1.83.05,2.64.49,10.64,5.77,21.34,11.46,31.89,17.4,7.23,4.07,7.45,4.35,10.55-3.19,4.71-11.47,8.98-23.12,13.37-34.73,3.72-9.83,7.32-19.71,11.03-29.54.5-1.32.67-3.32,2.37-3.43,1.96-.12,1.76,2.05,2.27,3.3,5.23,12.75,10.41,25.52,15.58,38.3,3.86,9.55,7.42,19.23,11.91,28.52,1.27,2.62,2.58,3.64,5.63,2.34,9.32-3.97,18.02-9.14,27.06-13.64,2.54-1.27,5.05-2.61,7.54-3.99,1.61-.89,2.38-.64,2.16,1.74Zm-50.98,93.99c-1.91.8-2.55,2.37-3.29,3.84-1.32,2.63-2.19,5.56-3.87,7.91-5.77,8.06-9.65,17.28-15.34,25.33-4.84,6.85-.4,12.6.98,18.9,7.59-18.56,15.33-36.97,21.53-55.98Zm-88.64-31.01c-2.62.43-5.54,1.29-8.43,2.28-.86.29-2.17.07-2.34,1.22-.21,1.43,1.26,1.5,2.15,1.86,7.42,2.97,14.86,5.89,22.3,8.81,5.19,2.04,10.38,4.07,15.58,6.06.62.24,1.4.91,1.96.05.38-.58-.2-1.18-.43-1.75-.91-2.21-2.38-3.76-4.55-4.93-7.48-4.07-14.86-8.33-22.27-12.54-1.12-.64-2.24-1.16-3.97-1.06Zm68.84-76.99c-5.2,11.98-10.18,23.4-15.12,34.85-.66,1.53.19,2.13,1.64,2.19,1.41.06,2.36-.58,3.08-1.79,2.3-3.88,4.65-7.75,7.02-11.59,1.09-1.77,1.14-3.9,2.7-5.59,5.73-6.23,5.86-9.92.68-18.07Zm79.27,83.5c-6.15-3.54-47.29-17.3-49.3-16.53.39.29.68.59,1.04.77,8.33,4.01,16.85,7.75,24.28,13.29,7.5,5.6,15.32,4.73,23.98,2.48Zm-102.57-28.32c3.14-2.77,3.86-7.03,6.44-10.12.42-.51,0-1.22-.61-1.58-.86-.52-1.53.03-1.79.7-1.39,3.64-3.41,7.05-4.04,11Z"/>
</svg>