<?xml version="1.0" encoding="UTF-8"?>
<svg id="Layer_1" data-name="Layer 1" xmlns="http://www.w3.org/2000/svg" viewBox="0 0 292.4 292.1">
  <path id="Air" d="m256.54,144.39c.55,8.85-1.51,19.67-5.82,29.77-4.98,11.66-11.93,21.99-22.82,29.52-9.95,6.88-20.55,11.49-32.43,13.22-17.46,2.54-34.14-.1-50.17-7.52-7.09-3.28-13.37-7.64-18.88-13-10.58-10.3-15.6-23.45-18.69-37.57-1.57-7.19-1.89-14.51-1.08-21.67,2.68-23.58,18.59-41.28,43.42-41.74,8.28-.15,16.27,1.07,23.21,5.86,9.5,6.56,13.19,16.39,14.13,27.36.39,4.57.58,9.24-.58,13.82-.88,3.46-2.66,6.44-4.88,9.12-3.31,4-13.01,3.51-16.27-.71-1.89-2.45-3.17-5.18-3.57-8.31-.45-3.45-1.24-6.84-2.87-9.96-2.9-5.57-9.48-6.76-14.25-2.58-2.5,2.19-4.34,4.85-5.53,7.96-4.74,12.39-1.19,22.98,7.47,32.15,16.93,17.94,41.74,20.27,61.81,5.76,7.67-5.54,11.94-13.74,14-22.66,5.42-23.46-1.26-44.39-15.35-63.08-10.67-14.15-25.25-22.31-42.74-25.83-16.38-3.29-31.75-.47-46.21,6.93-13.69,7-24.79,17.13-32.92,30.48-6.02,9.89-11.06,20.07-13.29,31.5-2.34,11.96-2.65,23.89-.8,36.02,2.59,16.95,10.5,31.31,20.22,45,6,8.45,13.47,15.59,20.3,23.3,3.49,3.93,3.6,6.35.28,10.53-3.91,4.93-8.67,8.76-14.2,11.82-4.04,2.23-7.73,1.57-11.42-.29-5.7-2.86-10.24-7.05-14.56-11.8-13.35-14.7-22.51-31.7-28.51-50.42-4.15-12.94-6.59-26.22-7.44-39.89-.91-14.65.07-29.03,3.94-43.11,4.31-15.67,12.48-29.37,23.46-41.31,14.08-15.31,31.32-26.15,50.41-34,12.03-4.95,24.67-7.59,37.78-8.14,14.57-.61,28.5,1.99,42,7.17,8.86,3.4,16.39,8.99,23.39,15.25,15.76,14.08,26.22,31.67,33.41,51.32,4.42,12.08,6.01,24.65,6.06,39.75Z"/>
</svg>