<?xml version="1.0" encoding="UTF-8"?>
<svg id="Layer_1" data-name="Layer 1" xmlns="http://www.w3.org/2000/svg" viewBox="0 0 292.4 292.1">
  <g id="Tech">
    <path d="m65.27,173.08c-4.76.46-5.56-2.22-6-5.83-.53-4.27-1.55-8.48-1.62-12.82-.04-2.48-1.12-4.41-3.11-5.92-2.43-1.84-4.86-3.71-7.17-5.69-2.05-1.76-3-3.84-2.02-6.7,2.35-6.88,3.49-14.07,4.75-21.2.37-2.11,1.37-2.93,3.36-2.87,4.94.16,9.91-.38,14.83.48,1.13.2,2.31.11,3.47.09.74-.01,1.55-.11,1.85-.92.3-.83-.35-1.35-.82-1.92-3.98-4.87-4.02-5.45-.12-10.43,1.43-1.83,1.6-3.86,1.22-5.98-.57-3.21-1.23-6.41-1.92-9.59q-1.79-8.22,5.15-12.49c4.21-2.59,8.23-5.49,11.98-8.69,1.7-1.45,3.07-1.67,4.68-.24,3.54,3.14,7.03,6.33,10.58,9.45.9.79,1.8,2.34,3.13,1.57,1.53-.88.32-2.2-.17-3.3-.69-1.55.43-2.26,1.51-2.57,3.44-1,6.46-3.02,10.03-3.74,5.02-1.02,8.86-7.78,7.42-12.7-1.06-3.61.56-6.74,4.42-6.92,8.41-.38,16.85-.22,25.28-.2,1.79,0,2.65,1.2,2.44,2.98-.39,3.35.87,6.44,1.57,9.6.58,2.62,2.39,4.44,5.08,5.11,5.84,1.45,11.55,3.3,17.12,5.56,1.46.59,2.64.37,3.82-.52,2.27-1.71,4.56-3.39,6.82-5.11,2.26-1.72,4.07-2.04,6.62.13,5.76,4.9,11.93,9.33,17.95,13.92,3.76,2.87,3.92,3.31,2.49,7.66q-3.33,10.13,2.55,18.77c2,2.94,4.48,5.54,5.44,9.15.49,1.84,2.21,2.67,4.14,2.97,2.81.44,5.58,1.18,8.41,1.44,2.52.23,3.43,1.55,3.68,3.82.68,6.27,1.45,12.53,2.11,18.8.44,4.18.7,8.37,1.13,12.55.22,2.17.15,4.51-2.46,4.62-9.46.41-10.58,7.41-11.87,14.38-.13.72.04,1.64-.34,2.16-3.54,4.84-.13,8.83,1.51,13.03.19.48.48.94.79,1.37,2.97,4.1,1.88,7.49-1.17,11.22-4.59,5.61-8.68,11.64-12.88,17.56-1.56,2.21-3.22,3.18-5.8,1.68-5.14-3-9.63-2.75-14.04,1.86-2.79,2.92-6.35,5.19-9.95,7.22-1.93,1.09-3.12,2.78-3.59,4.96-.68,3.19-1.43,6.36-2.04,9.57-.44,2.3-1.7,3.49-4.05,3.64-7.19.46-14.09,2.48-21.1,3.91-3.34.68-5.48-.13-7.01-3.15-.57-1.12-1.3-2.17-1.84-3.3-1.4-2.91-3.59-3.76-6.85-3.84-5.77-.14-11.68-.25-17.2-2.04-4.65-1.51-7.38.51-9.44,3.96-1.68,2.82-3.81,3.13-6.41,2.09-6.75-2.69-13.46-5.5-20.19-8.25-1.58-.65-2.13-1.81-1.3-3.27,1.51-2.67.63-5.85,1.96-8.55.37-.75-.22-1.4-.75-1.94-4.39-4.51-8.78-9.03-13.18-13.53-1.25-1.29-2.81-1.38-4.41-.92-2.83.81-5.68,1.61-8.46,2.59-2.1.74-3.49.25-4.34-1.77-2.72-6.51-5.94-12.78-9.19-19.03-1.12-2.16-.81-3.61,1.28-5.02,4.07-2.75,7.85-5.91,12.2-8.92Zm144.98-26.05c.47-7.51-1.21-14.6-3.46-21.67-3.36-10.53-10.01-18.7-18.24-25.64-11.49-9.7-24.81-12.19-39.11-7.98-17.32,5.1-29.09,17.05-37.24,32.54-7.76,14.76-10.47,30.81-9.38,47.39.68,10.33,4.14,19.9,11.14,27.61,12.75,14.04,29.07,18,46.97,13.52,19.78-4.95,33.52-17.58,42.27-36.09,4.51-9.55,6.59-19.36,7.06-29.68Z"/>
    <path d="m138.69,156.92c-9.39,0-15.35-7.03-13.65-16.68,1.92-10.88,7.04-20.16,14.95-27.78,5.7-5.49,17.07-8.8,24.49-4.42,5.72,3.38,7.22,8.46,6.92,14.13-.61,11.47-5.84,20.95-14.6,28.26-5.03,4.2-11.15,6.23-18.11,6.49Z"/>
    <path d="m169.82,172.41c.66,2.24-1.21,5.07-.92,8.19.1,1.04-1.77,2.18-2.57,3.39-2.98,4.49-6.25,8.66-10.96,11.52-4.37,2.65-8.76,4.89-14.19,3.99-2.34-.39-3.8-1.52-4.96-3.4-1.86-3.01-2.59-6.38-1.74-9.69,2.81-11,8.2-20.16,19.12-25.09,5.96-2.7,11.65-1.38,15.33,4.74,1.07,1.77.63,3.67.9,6.36Z"/>
    <path d="m200.08,163.7c-1.19,7.35-5.44,15.19-13.88,20.38-2.88,1.77-6.85-.14-9-3.59-3.34-5.35-2.46-10.33.68-15.34,2.76-4.41,5.86-8.5,10.59-10.95,7.22-3.75,11.71-.94,11.61,9.5Z"/>
  </g>
</svg>