<?xml version="1.0" encoding="UTF-8"?>
<svg id="Layer_1" data-name="Layer 1" xmlns="http://www.w3.org/2000/svg" viewBox="0 0 292.4 292.1">
  <path id="Water" d="m221.12,171.06c.25,19.88-5.03,36.96-16.45,51.8-14.27,18.55-33.13,30.19-56.38,33.48-19.83,2.8-38.28-1.97-53.96-14.62-14.57-11.75-23.78-26.74-23.12-46.22.48-14.24,6.3-26.45,15.82-36.87,10.06-11.02,20.93-21.33,29.51-33.66,10.7-15.37,19.09-31.77,21.83-50.51,1.85-12.63,1.32-25.16-3.7-37.17-.27-.66-.84-1.43-.07-2,.92-.68,1.83-.05,2.62.44,5.56,3.44,10.8,7.33,15.98,11.32,12.76,9.84,23.5,21.68,33.09,34.49,13.65,18.24,24.03,38.25,30.42,60.17,1.56,5.34,2.6,10.85,3.48,16.34.75,4.66,1.22,9.39.91,13.01Zm-89.41-36.35c-1.62.48-1.92,1.61-2.57,2.38-6.31,7.48-13.35,14.24-20.54,20.86-8.68,8-16.57,16.75-19.07,28.64-1.91,9.1-.56,17.94,6.52,24.99,2.69,2.68,5.9,3.3,9.28,1.72,3.03-1.42,3.72-4.28,3.8-7.41.12-4.83-2.16-8.96-3.82-13.24-5.05-13.04-.83-27.7,10.44-35.97,2.58-1.89,4.92-3.99,6.95-6.38,3.84-4.53,7.77-9.09,9.01-15.6Zm-17.25,102.19c1.97,1.32,4.08,1.89,6.13,2.59,10.27,3.47,20.57,1.61,30.85.14,6.75-.97,13.09-3.38,18.84-6.93,6.14-3.8,13.21-6.81,15.75-14.58.09-.27.37-.64.61-.69,3.48-.67,4.33-3.87,6.25-6.13,6.11-7.23,8.57-16.05,10.88-24.81,2.2-8.35,2.45-17.04,2.11-25.69-.07-1.75-.32-3.43-1-5.12-1.28.69-1.43,1.7-1.39,2.59.2,4.77-.95,9.4-1.35,14.11-.81,9.66-3.53,18.9-7.76,27.47-3.85,7.8-9.27,14.7-15.84,20.64-8.47,7.65-18.35,12.25-29.47,14.09-10.27,1.69-20.61,2.94-31.08,1.81-1.06-.11-2.26-.42-3.52.51Z"/>
</svg>