<?xml version="1.0" encoding="UTF-8"?>
<svg id="Layer_1" data-name="Layer 1" xmlns="http://www.w3.org/2000/svg" viewBox="0 0 292.4 292.1">
  <path id="Ring" d="m146.54,292.03c-5.95.27-12.55-.34-19.14-1.15-2.4-.3-4.48-1.07-6.28-2.66-.79-.7-1.71-1.25-2.46-1.98-4.01-3.85-8.57-4.06-13.45-2.09-1.82.74-3.6,1.18-5.52.47-10.61-3.9-20.94-8.33-30.2-14.97-5.55-3.98-10.09-8.93-13.91-14.51-3.98-5.81-8.8-10.75-14.69-14.59-2.92-1.9-5.25-4.23-6.84-7.26-1.01-1.92-2.45-3.03-4.6-3.42-2.54-.46-4.1-2.09-5.53-4.26C11.27,206.45,3.93,185.36.94,162.7c-.48-3.64-.63-7.33-.9-10.99-.24-3.28.6-6.26,2.62-8.88,1.59-2.06,2.38-4.48,2.76-6.98,1.38-9.15,2.92-18.37,2.62-27.59-.27-8.47,2.08-15.95,5.58-23.32,6.82-14.38,15.82-27.28,26.6-38.96,1.61-1.74,3.74-2.69,5.91-3.54,3.94-1.54,7.66-3.82,9.32-7.65,2.7-6.23,8.16-9.2,13.29-12.56,7.24-4.75,14.77-9.51,23.52-10.25,5.67-.48,9.56-3.13,14.19-5.7,6.2-3.44,13.51-5.41,20.99-3.21,1.42.42,2.45-.19,3.4-1.11,1.29-1.23,2.85-1.68,4.61-1.75,18.12-.73,36.02.49,53.42,6.09,4.49,1.44,9.1,2.48,12.01,6.91,1.37,2.09,4.04,2.67,6.51,2.74,5.04.14,9.42,2.08,13.58,4.65,9.43,5.83,18.14,12.62,26.49,19.89,2.64,2.3,4.83,5.04,6.18,8.3,2.21,5.35,5.18,10.13,10.03,13.48,5.74,3.96,8.39,10.16,11.6,15.91,3.6,6.44,6.42,13.24,9.07,20.13,2.28,5.93,2.34,11.75,1.59,17.95-1.22,10.11-1.24,20.18,4.73,29.24,2.02,3.07,1.86,6.63,1.52,10.12-.3,3.03-.79,6.05-1.11,9.08-.31,2.96-1.2,5.49-3.99,7.1-2.39,1.39-2.17,3.61-.86,5.47,1.96,2.76,1.56,5.38.66,8.36-2.24,7.48-5.21,14.67-8.21,21.85-.88,2.1-2.2,3.54-4.6,3.77-2.05.2-3.54,1.45-4.66,2.99-4.7,6.46-9.87,12.73-9.39,21.48.09,1.53-.68,2.82-1.68,3.98-7.97,9.33-17.08,17.43-26.97,24.66-3.14,2.3-6.42,4.42-9.62,6.64-3.16,2.2-6.54,3.83-10.41,4.3-4.88.6-9,3-12.84,5.79-3.05,2.21-6.35,3.68-9.91,4.74-13.5,4.04-27.22,6.59-42.09,6.23Zm.37-278.54C73.69,12.42,15.36,71.74,13.45,141.57c-2.16,78.67,60.21,134.97,128.14,137.09,77.46,2.41,136.07-59.49,137.45-129.72,1.52-77.49-62.02-136.32-132.12-135.44Z"/>
</svg>