<?xml version="1.0" encoding="UTF-8"?>
<svg id="Layer_1" data-name="Layer 1" xmlns="http://www.w3.org/2000/svg" viewBox="0 0 292.4 292.1">
  <path id="Fire" d="m246.33,158.14c.17,12.57-2.1,24.82-6.5,36.46-7.76,20.51-21.38,36.11-40.94,46.54-14.24,7.6-29.34,11.11-45.36,12.17-16.74,1.11-33.1-.29-48.97-5.51-19.47-6.4-36.91-16.16-48.97-33.41-7-10.03-10.5-21.23-9.32-33.63.13-1.36.12-2.74.08-4.1-.29-8.69,5.62-13.57,11.48-18.37,1.69-1.38,3.69-.11,3.41,2.27-.5,4.33,1.05,7.8,3.65,11.02.52.65,1.02,1.38,1.3,2.16.62,1.73.52,3.7,2.64,4.71,3.46,1.65,6.46,4.35,10.74,3.9,4.73-.5,9.07-1.76,12.66-5.05,3.2-2.94,4.11-6.61,3.08-10.65-1.52-5.96-4.78-10.79-9.44-14.94-7.07-6.29-14.08-12.7-19.86-20.25-8.61-11.25-7.41-24.48,2.69-35.57,7.75-8.51,17.07-14.57,27.52-19.11.87-.38,1.68-.87,2.53-1.29.81-.4,1.7-1.41,2.53-.57.87.88-.14,1.75-.7,2.44-3.25,4.07-5.62,8.68-7.62,13.42-2.14,5.1-4.47,10.15-4.26,16,.3,8.21,7.91,15.9,15.91,15.58,2.84-.12,5.73.16,8.52-.23,11.14-1.55,15.63-11.53,14.99-21.43-.33-5.12-1.79-10.13-3.2-15.1-2.63-9.25-2.37-18.57,2.06-27.07,3.89-7.45,9.86-13.46,17.93-16.62,12.11-4.75,24.55-4.09,37.01-1.46,2.58.55,5.15,1.1,7.72,1.7.98.23,2.6.1,2.6,1.26,0,1.49-1.72,1.19-2.76,1.4-5.25,1.06-10.56,1.54-15.75,3.17-12.26,3.85-16.52,14.11-14.05,24.79,2.12,9.15,6.36,16.82,13.06,23.17,5.35,5.07,10.22,10.6,14.7,16.36,7.08,9.1,6.21,21.87-.99,31.01-2.84,3.61-5.82,7.21-7.77,11.44-1.52,3.3-.65,5.89,1.39,8.68,7.15,9.84,22.3,5.59,28.97-1.29,7.94-8.2,9.14-17.99,7.83-28.42-1.58-12.59-4.84-24.75-11.33-35.85-.45-.76-1.33-1.76-.48-2.56.8-.75,1.46.38,2.13.78,8.51,5.04,15.53,11.74,22.21,18.98,5.86,6.36,10.38,13.42,13.47,21.39,2.69,6.93,3.65,14.23,3.44,21.67Zm-100.91,79.21c6.74-.27,11.96-1.17,16.98-2.7,4.33-1.32,9.15-2.25,11.21-7.26.17-.42.75-.83,1.22-.94,3.27-.84,4.33-3.68,5.16-6.28,1.44-4.52,1.99-9.33,1.5-14.02-1.27-12.11-8.32-20.58-18.1-27.13-1.69-1.13-2.75-1.13-3.17,1.36-.93,5.5-5.27,9.46-10.62,9.45-6.58-.01-12.44-2.17-14.04-8.33-1.84-7.03,1.5-12.62,5.5-17.59,4.63-5.75,12.11-8.19,17.23-13.62,3.68-3.89,6.41-8.22,8.43-13.08.23-.56.36-1.26.26-1.85-.18-1.07.08-2.71-1.34-2.85-1.26-.13-1.3,1.37-1.61,2.36-1.18,3.73-2.57,7.41-5.46,10.17-4.86,4.66-10.08,8.86-15.71,12.63-6.67,4.46-11.97,10.23-14.3,18.24-1.36,4.68-.15,8.95,2.73,12.42,8.29,10,22.32,9.64,30.32-.63,1.43-1.83,2.21-1.5,3.67-.18,6.58,5.98,7.92,13.89,8.23,22.12.13,3.45-.5,6.8-2.39,9.95-5.61,9.37-14.72,12.34-24.65,13.92-2.59.41-5.24.47-7.86.71-.63.06-1.42.15-1.5.88-.1.86.74.84,1.34.94,2.8.47,5.52,1.47,6.97,1.29Z"/>
</svg>