<?xml version="1.0" encoding="UTF-8"?>
<svg id="Layer_1" data-name="Layer 1" xmlns="http://www.w3.org/2000/svg" viewBox="0 0 292.4 292.1">
  <path id="Dark" d="m121.8,36.47c3.72-.32,7.44-.76,11.17-.93,14.61-.66,29.12,0,43.17,4.46,12.45,3.96,23.97,9.88,34.08,18.2,11.68,9.61,21.49,20.94,29.61,33.69,2.95,4.63,4.83,9.78,6.92,14.82.04.1.09.2.09.3-.22,7.75,4.84,14.07,5.72,21.59,1.09,9.33,1.64,18.61.63,27.98-.27,2.55-2.82,4.49-2.62,6.49.22,2.18,1.44,4.1.82,6.72-3.31,13.98-8.87,26.88-16.9,38.84-6.47,9.63-14.07,18.23-23.2,25.22-10.75,8.22-22.77,14.27-35.79,18.39-8.59,2.72-17.47,2.52-26.2,3.77-15.86,2.26-31.05-.67-45.86-6.18-16.19-6.02-30.1-15.5-41.85-28.09-6.56-7.03-12.12-14.82-16.49-23.42-1.81-3.56-3.78-7.05-5.66-10.57-.38-.71-1.22-1.57-.36-2.24.88-.68,1.48.33,2.02.92,4.78,5.23,10.08,9.91,16,13.74,12.21,7.91,25.18,14.15,39.9,15.64,7.87.79,15.79.4,23.69.11,6.96-.26,13.81-.86,20.37-3.58,3.81-1.58,6.79-4.23,9.9-6.68,9.26-7.26,19.29-13.61,27.24-22.47,4.98-5.55,8.86-12.01,14.16-17.31.55-.55,1.07-1.48,1.05-2.22-.16-8.24,3.3-15.82,4.28-23.86,3.11-25.52-3.04-48.52-18.97-68.63-12.64-15.96-29.34-25.94-49.04-31.05-2.69-.7-5.46-1.36-7.93-2.71.02-.31.04-.63.06-.94Z"/>
</svg>