<?xml version="1.0" encoding="UTF-8"?>
<svg id="Layer_1" data-name="Layer 1" xmlns="http://www.w3.org/2000/svg" viewBox="0 0 292.4 292.1">
  <path id="Earth" d="m205.39,238.43c-.91-.3-2.29-.55-3.49-1.17-2.65-1.37-5.02-.76-7.52.45-8.34,4.01-16.74,7.9-25.11,11.87-2,.95-3.95,1.16-6.1.4-2.27-.8-4.57-.57-6.72.64-3.02,1.71-6.15,3.26-9.05,5.15-1.87,1.22-3.41,1.12-5.26.12-8.99-4.85-17.98-9.69-27.2-14.11-7.41-3.55-14.8-7.14-22.12-10.86-2.63-1.34-4.89-.43-6.78.99-4.07,3.07-7.75,2.79-12.2.49-9.24-4.78-19.31-7.9-28.02-13.76-3.93-2.64-7.76-5.42-11.61-8.17-1.56-1.11-1.52-2.65-.9-4.25,1.87-4.8,3.77-9.58,5.63-14.38,3.58-9.21,7.49-18.3,10.96-27.52,1.82-4.84,4.68-8.82,7.04-13.21,6.25-11.65,14.49-22.07,20.78-33.69,1.38-2.56,2.4-2.49,3.93.18,2.19,3.83,4.19,7.78,6.3,11.66.59,1.09,1.04,2.58,2.44,2.67,1.42.09,1.55-1.53,2.07-2.48,11.69-21.3,24.39-42.05,35.35-63.73,4.89-9.66,10.89-18.72,15.17-28.69.29-.67.52-1.53,1.36-1.59.99-.06.9.97,1.24,1.57,4.26,7.5,7.6,15.49,12.04,22.9,1.47,2.45,2.9,3.22,5.07.84.56-.61,1.35-1,2-1.53,1.47-1.2,2.62-1.02,3.6.66,5.88,10.09,11.88,20.1,17.63,30.26,3.62,6.39,7.74,12.51,10.81,19.22.66,1.43,1.54,1.61,2.55.22,1.36-1.87,2.8-3.68,4.17-5.54.62-.84,1.08-1.98,2.31-1.88,1.1.09,1.35,1.22,1.74,2.06,3.95,8.48,7.83,16.99,11.86,25.43,1.89,3.94,4.67,7.55,5.99,11.65,1.94,6.07,5.13,11.46,7.82,17.13,2.65,5.59,5.11,11.33,8.71,16.35,1.62,2.26,2.81,4.76,3.81,7.11,2.87,6.78,8.72,11.87,10.51,19.2.36,1.49,1.35,2.84,2.13,4.21,1.87,3.26,1.59,4.03-1.85,5.78-10.5,5.36-21.31,10.14-31.4,16.24-5.56,3.36-11.1,6.78-16.68,10.1-.81.48-1.58,1.07-3.02,1.02Zm-100.66-105.99c.22.15.44.3.66.45,1.75-2.45,3.57-4.86,5.24-7.36,1.15-1.73,3.46-2.75,3.55-5.07.12-3.31,2.42-4.83,4.62-6.68,4.29-3.6,7.99-7.99,10.25-12.96,1.44-3.17,3.03-5.85,5.45-8.21,1.8-1.76,3.56-3.56,5.12-5.57,1.87-2.41,2.85-2.35,4.3.39,2.3,4.36,4.41,8.83,6.51,13.29,1.32,2.8,2.18,3.06,4.7,1.21,1.89-1.38,3.54-3,4.98-4.82,1.47-1.86,2.92-1.94,4.9-.72,3.94,2.43,7.98,4.69,12.02,6.94.75.42,1.66,1.6,2.46.75.89-.94-.29-1.9-.77-2.77-3.13-5.72-6.75-11.15-9.97-16.8-3.34-5.85-5.01-7.03-9.4-.98-1.3,1.8-2.55,1.82-3.8-.32-2.92-4.99-6-9.88-9.01-14.81-.65-1.06-.9-2.3-.36-3.33,1.44-2.69.44-5.09-.57-7.53-.27-.66-.28-1.63-1.13-1.75-1.09-.16-1.26.93-1.63,1.63-3.59,6.91-7.25,13.78-10.69,20.75-4.93,9.99-10,19.9-15.17,29.76-4.24,8.08-8.17,16.32-12.24,24.49Zm-3.2,37.16c.16-.66.23-.79.2-.84-6.76-10.49-13.53-20.98-20.31-31.47-1.04-1.61-2.09-1.13-2.93.15-1.67,2.54-3.23,5.15-4.87,7.72-5.31,8.31-6.03,6.09,1.19,13.49.07.08.15.15.21.23,1.16,1.44,1.97,1.02,2.26-.57.54-2.99.96-6,1.39-9.01.1-.68-.47-1.58.42-1.97.83-.36,1.33.45,1.82.95,5.49,5.63,10.97,11.27,16.44,16.92,1.34,1.39,2.66,2.8,4.19,4.4Z"/>
</svg>