<?xml version="1.0" encoding="UTF-8"?>
<svg id="Layer_1" data-name="Layer 1" xmlns="http://www.w3.org/2000/svg" viewBox="0 0 292.4 292.1">
  <path id="Light" d="m24.71,145.29c4.92,1.52,8-1.24,11.39-2.67,9.22-3.88,18.31-8.04,27.45-12.1.67-.3,1.34-.62,1.98-.98,3.36-1.91,3.38-2.32,1.22-5.47-7.33-10.67-14.63-21.36-21.85-32.1-.88-1.31-3.33-2.34-2.36-3.97.92-1.55,3.34-.83,5.05-.67,12.88,1.23,25.84,1.33,38.69,3,4.78.62,5.56-.05,5.1-4.84-.69-7.2-1.89-14.35-2.73-21.54-.63-5.42-.77-10.9-2.01-16.25-.22-.93-.34-1.96.64-2.57,1.01-.63,1.83.13,2.6.62,6.49,4.1,12.95,8.24,19.43,12.34,5.16,3.27,10.39,6.42,15.47,9.79,2.42,1.6,4.04,1.12,4.9-1.42,3.19-9.37,7.82-18.17,11.02-27.53,1.35-3.96,3.95-7.47,4.21-11.83.05-.8.52-1.7,1.52-1.79,1.06-.09,1.38.83,1.7,1.59,1.55,3.68,3.49,7.2,5.09,10.83,4.58,10.42,10.86,19.94,15.58,30.26.94,2.06,3.05,2.53,5,1.03,10.22-7.9,20.92-15.16,30.77-23.55,1.45-1.24,3.1-3.43,5.06-2.36,1.81.98.26,3.28.16,4.98-.58,9.75-1.29,19.49-1.89,29.23-.21,3.46-.8,6.88-.68,10.38.1,2.74,1.34,3.78,3.96,3.6,9.03-.63,18.07-1.06,27.14-.95,2.41.03,4.82-.39,7.23-.55.71-.05,1.59-.15,2.03.56.57.91-.2,1.63-.69,2.24-7.31,9.01-13.11,19.06-19.91,28.42-.55.76-1.02,1.59-1.43,2.44-.68,1.4-.24,2.35,1.19,3.03,11.87,5.64,23.72,11.32,35.59,16.97,1.04.5,2.18.78,3.25,1.23.83.35,2.18.38,2.13,1.53-.04,1.05-1.35,1.15-2.18,1.54-12.78,5.97-25.31,12.4-37.29,19.85-2.85,1.77-2.83,3.05-.91,5.83,6.08,8.82,12.43,17.44,18.97,25.93,1.15,1.49,2.51,2.83,3.74,4.26.62.72,1.35,1.5.99,2.52-.44,1.26-1.67,1.2-2.69,1.13-5.15-.34-10.29-.71-15.45-.62-8.96.17-17.85-1.09-26.8-1.23-4.48-.07-5.09.75-4.27,5.25,2.2,11.99,4.39,23.99,6.57,35.99.15.83.21,1.67.36,2.5.41,2.16-.62,2.13-2.1,1.4-.76-.37-1.51-.75-2.23-1.19-10.69-6.53-21.37-13.07-32.07-19.58-1.07-.65-2.25-1.14-3.4-1.65-1.53-.67-2.45-.27-3.2,1.36-4.86,10.49-9.82,20.93-14.74,31.4-.63,1.33-1.14,2.71-1.71,4.07-.32.76-.47,1.73-1.52,1.8-1,.07-1.53-.71-1.86-1.47-3.95-9.12-9.79-17.17-14.61-25.79-2.16-3.85-4.44-7.64-6.79-11.38-1.49-2.38-3.16-2.82-5.66-.82-9.22,7.34-18.8,14.21-28.47,20.95-.6.42-1.13.95-1.74,1.36-.88.61-1.42,2.32-2.75,1.5-1.22-.75-1.28-2.28-1.13-3.72,1.21-12.35,1.82-24.73,1.72-37.15-.02-2.85-.94-4.25-3.84-4.58-3.79-.43-7.62-.52-11.36-.12-6.21.67-12.42.33-18.63.51-1.99.06-4.02-.24-5.81,1-.51.35-1.22.7-1.69.03-.41-.59.07-1.2.4-1.73,1.7-2.78,3.28-5.64,5.14-8.31,5.9-8.47,10.02-18,15.97-26.44.88-1.25.19-1.74-.9-2.38-6.89-4.02-14-7.64-21.1-11.27-4.87-2.49-9.7-5.07-14.65-7.39-1.86-.88-3.44-1.91-5.29-4.29Zm45.81-1.5c.75,1.58,1.79,1.46,2.69,1.61,3.64.6,7.27,1.2,10.92,1.73,1.83.27,2.81,1.11,2.92,3.05.33,5.93,1.75,11.64,3.7,17.23.8,2.3.49,4.04-1.58,5.5-1.19.84-2.19,1.97-3.19,3.04-.65.7-1.21,1.6-.66,2.57.58,1.02,1.63.84,2.55.58,1.82-.51,3.64-1.05,5.44-1.66,2.07-.7,3.48-.27,4.78,1.7,3.41,5.17,8.09,9.21,12.74,13.2,2.08,1.79,2.69,3.59,1.36,6.07-.89,1.66-1.62,3.42-2.35,5.16-.53,1.27-1.18,2.81.26,3.73,1.6,1.02,2.42-.58,3.27-1.59.81-.97,1.51-2.03,2.27-3.03,3.33-4.4,3.79-4.63,8.99-2.96,5.41,1.74,10.71,3.84,16.42,4.45,1.92.2,2.32,1.59,2.29,3.19-.09,3.83.81,7.52,1.48,11.24.14.79-.01,1.92,1.17,1.89,1.15-.02,1.06-1.15,1.16-1.94.5-3.96,1-7.92,1.43-11.89.13-1.2.13-2.42,1.73-2.51,7.17-.4,13.75-2.89,20.28-5.61,1.8-.75,3.13-.26,4.47,1.18,2.95,3.17,5.45,6.68,8.15,10.04.57.71,1.1,1.98,2.13,1.44,1.03-.54.34-1.75,0-2.55-1.56-3.57-3.16-7.12-4.87-10.61-1.19-2.44-.93-4.3,1.33-6.04,4.88-3.74,9.12-8.13,12.44-13.32,1.11-1.74,2.35-2.16,4.23-1.41,3.42,1.37,6.88,2.65,10.33,3.95.85.32,1.98,1.15,2.57.16.69-1.16-.82-1.46-1.49-1.96-3.11-2.34-6.22-4.69-9.44-6.88-1.8-1.22-1.94-2.47-.89-4.23,2.81-4.71,4.01-9.93,4.46-15.31.22-2.6,1.34-4.15,3.88-4.6,3.42-.6,6.86-1.12,10.28-1.72,1.08-.19,2.82.09,2.86-1.3.04-1.64-1.86-1.43-2.96-1.61-3.53-.56-7.1-.87-10.65-1.33-2.03-.26-3.15-1.35-3.36-3.51-.59-6.35-2.51-12.37-4.96-18.2-1.09-2.6-.48-4.42,1.54-6.1,2.34-1.95,4.64-3.96,6.92-5.98.69-.61,1.73-1.35,1-2.34-.73-.99-1.74-.12-2.56.26-2.28,1.07-4.54,2.2-6.81,3.3-3.09,1.5-5.53,1.22-7.66-1.36-3.31-3.99-6.81-7.73-11.19-10.58-2.23-1.45-2.43-3.35-1.24-5.74,1.49-3.01,2.68-6.18,3.94-9.3.34-.85.89-1.91-.1-2.6-1.1-.75-1.71.32-2.3,1.01-2.04,2.4-4.16,4.76-6.04,7.28-2.56,3.44-3.39,3.84-7.36,2.04-4.18-1.9-8.56-3.04-13.1-3.26-3-.15-4.49-1.6-4.87-4.34-.47-3.44-1.53-6.78-1.55-10.29,0-.97.24-2.42-1.24-2.48-1.25-.05-1.15,1.3-1.32,2.18-.72,3.82-1.33,7.66-2.1,11.48-.26,1.32-.68,2.97-2.38,2.95-6.5-.08-12.41,2.07-18.28,4.48-1.3.53-2.96.82-3.82-.43-2.26-3.27-4.83-6.2-7.97-8.66-.66-.52-.85-2.03-2.03-1.27-.98.63-.33,1.74.05,2.58,1.21,2.69,2.53,5.32,3.67,8.04,1.74,4.13,1.49,4.34-1.99,7.02-3.65,2.8-7.51,5.45-10.08,9.42-2.31,3.56-2.9,3.81-6.92,2.2-3.52-1.4-6.97-2.95-10.46-4.43-.75-.32-1.64-1.01-2.25-.06-.57.88.28,1.56.89,2.11.54.49,1.13.98,1.78,1.3,2.98,1.46,5.19,3.93,7.76,5.93,1.8,1.4,2.79,3.15,1.51,5.49-3.08,5.6-4.68,11.67-5.46,17.97-.24,1.98-1.18,2.89-3.22,3.15-4.36.55-8.7,1.35-13.34,2.09Z"/>
</svg>