<?xml version="1.0" encoding="UTF-8"?>
<svg id="Layer_1" data-name="Layer 1" xmlns="http://www.w3.org/2000/svg" viewBox="0 0 292.4 292.1">
  <g id="Life">
    <path d="m70.88,99.47c-2.12,5-3.38,10.02-3.9,15.29-.87,8.78,2.05,16.26,7.37,23.07,1.76,2.25,4.52,1.99,6.72,3.13,4.96,2.56,9.87,5.24,15.15,7.27,10.81,4.17,21.27,9.18,30.95,15.67,5.82,3.9,10.69,8.79,15.46,13.88,8.66,9.24,12.4,20.77,15.78,32.51.27.95.94,2.17-.17,2.91-1.02.68-2.08-.12-2.91-.69-10.55-7.24-22.62-10.52-34.8-13.64-8.32-2.13-16.11-5.58-22.8-11.16-.3-.25-.68-.4-1.2-.69-.55,1.46.24,2.41.86,3.25,3.64,4.97,8.28,8.76,13.25,12.44,9.24,6.86,20.33,10.1,29.85,16.3,3.09,2.01,6.48,3.75,9.07,6.29,5.69,5.59,8.69,13.27.15,19.78-11.73,8.95-24.99,10.85-39.13,10.01-9.94-.59-19.23-3.31-28.19-7.52-10.47-4.92-18.95-12-25.24-21.74-8.07-12.49-14.51-25.67-16.78-40.52-2.03-13.31-1.49-26.55,1.32-39.76,2.06-9.67,5.76-18.72,10.75-27.07,4.56-7.62,10.83-14.04,18.44-19.01Z"/>
    <path d="m253.26,158.2c-.28,16.34-4.8,30.58-13.38,43.74-9.92,15.21-24.27,22.56-41.78,24.38-11.03,1.15-21.64-.67-31.12-6.84-6.44-4.19-7.14-9.68-1.89-15.32,5.03-5.41,11.35-9.01,18.08-11.89,7.23-3.09,13.91-7,19.56-12.53.45-.44.91-.87,1.33-1.35.41-.48.89-1.03.47-1.68-.52-.82-1.29-.5-1.97-.2-2.87,1.3-5.63,2.83-8.66,3.83-7.2,2.38-14.63,4-21.75,6.65-3.58,1.34-6.95,2.99-10.11,5.12-.84.57-1.66,1.68-2.77,1-1.13-.7-.49-1.97-.25-2.9,3.55-14.2,10.27-26.35,22.56-34.99,10.35-7.28,21.73-12.19,33.7-16.23,12.49-4.22,17.52-13.68,15.29-27.42-.3-1.86-.92-3.67-1.31-5.53-.14-.67-.45-1.58.42-1.96.68-.3,1.11.43,1.54.85,10.06,9.91,17.14,21.55,19.95,35.48,1.23,6.07,1.95,12.25,2.08,17.77Z"/>
    <path d="m143.46,106.63c-.61,4.31-.08,8,1.34,11.8,1.65,4.4,4.73,8.11,5.69,12.85.37,1.86,1.87,3.49,2.83,5.23,3.15,5.68,4.91,11.86,6.08,18.16,1.39,7.53-2.36,11.8-10.02,11.67-9.03-.15-16.71-4.05-23.69-9.32-12.9-9.74-20.73-22.79-23.87-38.52-1.19-5.98-.62-12.14.15-18.22,1.47-11.74,4.83-22.79,11.73-32.54,7.47-10.55,16.78-19.18,28.27-25.13,6.94-3.59,14.43-5.86,22.43-5.78.74,0,1.47.04,2.2.13.29.03.55.25,1.14.53-3.23,2.5-6.37,4.85-9.12,7.62-4.66,4.69-7.87,15.35-3.67,22.46,5.93,10.03,12.24,19.9,16.7,30.72,6.86,16.63,7.98,33.39.37,50.17-.46,1.01-.73,2.63-1.96,2.63-1.54,0-1.14-1.78-1.4-2.77-1.35-5.2-4.08-9.63-7.25-13.89-4.33-5.82-8.54-11.72-12.74-17.63-1.55-2.17-2.03-4.84-3.09-7.23-.41-.92-.48-2.05-2.11-2.94Z"/>
  </g>
</svg>