<?xml version="1.0" encoding="UTF-8"?>
<svg id="Layer_1" data-name="Layer 1" xmlns="http://www.w3.org/2000/svg" viewBox="0 0 292.4 292.1">
  <path id="Undead" d="m188.88,259.02c-2.95,0-5.9.01-8.85,0-1.78-.01-2.48-.75-2.55-2.71-.43-12.6-1.08-25.19-1.54-37.78-.09-2.39-1.14-3.08-3.32-3.06-2.08.02-3.13.42-3.3,2.96-.75,11.13-1.05,22.26-.97,33.4.04,5.16-.77,5.74-6.01,5.11-2.5-.3-5.04-.28-7.56-.38-1.6-.06-2.36-.62-2.5-2.45-.93-12.04-1.96-24.08-3.11-36.1-.17-1.79.2-4.7-2.55-4.69-2.57,0-3.03,2.73-3.28,4.76-.81,6.67-1.43,13.37-2.08,20.06-.7,7.32-1.38,14.64-1.99,21.97-.21,2.44-1.69,2.95-3.71,2.72-5.96-.66-11.93-1.29-17.84-2.38-2.58-.48-2.95-1.57-2.27-3.93,2.73-9.61,5.3-19.27,7.91-28.92.38-1.42.66-2.87.96-4.31.27-1.35.74-2.86-1.26-3.27-1.77-.35-3.04.32-3.72,2.11-2.88,7.57-5.8,15.12-8.68,22.69-1.12,2.95-2.24,5.9-3.25,8.89-.71,2.13-2.06,3.1-4.28,2.82-6.68-.82-13.37-1.66-20.05-2.49-1.96-.24-2.06-1.38-1.49-2.95,3.78-10.26,7.54-20.54,11.31-30.81.87-2.37,1.64-4.78,2.62-7.1.85-2.03.1-2.8-1.86-3.33-9.76-2.64-18.92-6.69-26.92-12.86-13.13-10.13-21.16-23.7-24.19-39.86-5.93-31.63,1.04-60.53,19.68-86.69,11.87-16.65,28.26-26.95,47.17-33.9,7.75-2.85,15.59-5.26,23.76-6.29,28.63-3.63,54.77,2.28,76.98,21.39,21.86,18.8,34.97,42.84,40.67,70.91,1.51,7.42,1.34,15.03.4,22.61-2.15,17.32-7.66,33.43-17.98,47.57-6.99,9.57-15.95,16.2-28.77,15.27-2.25-.16-4.41-.62-6.45-1.4-2.92-1.12-3.3.23-3,2.59.7,5.42,1.45,10.83,2.1,16.26,1.19,10.01,2.32,20.04,3.48,30.05.27,2.37-.69,3.6-3.17,3.57-2.85-.03-5.69,0-8.54,0v-.02Zm-110.98-113.04c-1.95,17.98,15.6,34.28,32.42,34.2,18.55-.09,34.51-15.1,34.75-32.8.24-18.34-14.45-34.27-33.28-34.61-19.75-.36-35.4,17-33.88,33.22Zm122.82,30.3c10.4.02,17.94-7.41,18.09-17.83.13-9.06-8.59-17.44-18.17-17.44-9.06,0-17.05,8.04-17.1,17.22-.06,10.07,7.52,18.03,17.18,18.05Z"/>
</svg>